<?xml version="1.0" encoding="UTF-8"?>
<svg
   xmlns:dc="http://purl.org/dc/elements/1.1/"
   xmlns:cc="http://creativecommons.org/ns#"
   xmlns:rdf="http://www.w3.org/1999/02/22-rdf-syntax-ns#"
   xmlns:svg="http://www.w3.org/2000/svg"
   xmlns="http://www.w3.org/2000/svg"
   id="svg8"
   version="1.1"
   viewBox="0 0 76.394852 20.969095"
   height="20.969095mm"
   width="76.394852mm">
  <g
     transform="translate(-17.348694,-13.377502)"
     id="layer1">
    <g
       style="font-style:normal;font-weight:normal;font-size:28.2222px;line-height:1.25;font-family:sans-serif;white-space:pre;shape-inside:url(#rect12);fill:#000000;fill-opacity:1;stroke:none"
       id="text10"
       aria-label="LOGO">
      <path
         id="path839"
         style="font-style:normal;font-variant:normal;font-weight:bold;font-stretch:normal;font-size:28.2222px;-inkscape-font-specification:'Public Sans, Bold';font-variant-ligatures:normal;font-variant-caps:normal;font-variant-numeric:normal;font-variant-east-asian:normal;fill:#a9a9a9;fill-opacity:1"
         d="m 21.511469,13.659724 v 16.91921 h 8.861771 v 3.485441 H 17.348694 l 0.01411,-20.404651 z" />
      <path
         id="path841"
         style="font-style:normal;font-variant:normal;font-weight:bold;font-stretch:normal;font-size:28.2222px;-inkscape-font-specification:'Public Sans, Bold';font-variant-ligatures:normal;font-variant-caps:normal;font-variant-numeric:normal;font-variant-east-asian:normal;fill:#a9a9a9;fill-opacity:1"
         d="m 41.448249,34.346597 q -2.878664,0 -5.00944,-1.255888 -2.116665,-1.255888 -3.259665,-3.59833 -1.142999,-2.356554 -1.142999,-5.573885 0,-3.231442 1.157111,-5.602107 1.15711,-2.384775 3.287886,-3.654774 2.130776,-1.284111 4.967107,-1.284111 2.82222,0 4.938885,1.269999 2.116665,1.269999 3.259664,3.654775 1.157111,2.370665 1.157111,5.602107 0,3.20322 -1.143,5.559774 -1.128888,2.356553 -3.245553,3.626552 -2.116665,1.255888 -4.967107,1.255888 z m 0.01411,-3.386664 q 2.328332,0 3.58422,-1.693332 1.269999,-1.693332 1.269999,-5.305773 0,-3.697109 -1.28411,-5.446885 -1.269999,-1.749777 -3.58422,-1.749777 -2.31422,0 -3.612441,1.763888 -1.298222,1.749776 -1.298222,5.432774 0,3.59833 1.28411,5.305773 1.298222,1.693332 3.640664,1.693332 z" />
      <path
         id="path843"
         style="font-style:normal;font-variant:normal;font-weight:bold;font-stretch:normal;font-size:28.2222px;-inkscape-font-specification:'Public Sans, Bold';font-variant-ligatures:normal;font-variant-caps:normal;font-variant-numeric:normal;font-variant-east-asian:normal;fill:#a9a9a9;fill-opacity:1"
         d="m 62.830096,34.346597 q -2.765776,0 -4.854219,-1.28411 -2.074332,-1.298221 -3.20322,-3.654775 -1.128888,-2.356554 -1.128888,-5.475107 0,-3.189108 1.185333,-5.573884 1.185332,-2.398887 3.316108,-3.682997 2.130776,-1.298222 4.924774,-1.298222 2.328332,0 4.205108,0.959555 1.876777,0.959555 2.94922,2.539998 1.086555,1.566332 1.15711,3.358442 l -4.346219,0.07056 q -0.197555,-0.987777 -0.733777,-1.763888 -0.536222,-0.790222 -1.396999,-1.227666 -0.846666,-0.451555 -1.93322,-0.451555 -1.439333,0 -2.525887,0.733777 -1.086555,0.733778 -1.707443,2.285999 -0.606778,1.538109 -0.606778,3.880552 0,3.711219 1.396999,5.333996 1.396999,1.622777 3.598331,1.622777 1.142999,0 2.017887,-0.493889 0.874888,-0.493888 1.382888,-1.241777 0.507999,-0.747888 0.606777,-1.523999 l 0.183444,-1.241776 h -4.23333 v -2.850443 l 8.551327,0.04233 v 10.65388 h -2.82222 v -2.666998 q -0.973666,1.312333 -2.370665,2.130776 -1.396999,0.818444 -3.612441,0.818444 z" />
      <path
         id="path845"
         style="font-style:normal;font-variant:normal;font-weight:bold;font-stretch:normal;font-size:28.2222px;-inkscape-font-specification:'Public Sans, Bold';font-variant-ligatures:normal;font-variant-caps:normal;font-variant-numeric:normal;font-variant-east-asian:normal;fill:#a9a9a9;fill-opacity:1"
         d="m 84.387885,34.346597 q -2.878664,0 -5.00944,-1.255888 -2.116665,-1.255888 -3.259664,-3.59833 -1.142999,-2.356554 -1.142999,-5.573885 0,-3.231442 1.15711,-5.602107 1.15711,-2.384775 3.287886,-3.654774 2.130776,-1.284111 4.967107,-1.284111 2.82222,0 4.938885,1.269999 2.116666,1.269999 3.259665,3.654775 1.15711,2.370665 1.15711,5.602107 0,3.20322 -1.142999,5.559774 -1.128888,2.356553 -3.245553,3.626552 -2.116665,1.255888 -4.967108,1.255888 z m 0.01411,-3.386664 q 2.328331,0 3.584219,-1.693332 1.269999,-1.693332 1.269999,-5.305773 0,-3.697109 -1.28411,-5.446885 -1.269999,-1.749777 -3.58422,-1.749777 -2.31422,0 -3.612441,1.763888 -1.298221,1.749776 -1.298221,5.432774 0,3.59833 1.28411,5.305773 1.298221,1.693332 3.640664,1.693332 z" />
    </g>
  </g>
</svg>
