<?xml version="1.0" encoding="utf-8"?>
<!-- Generator: Adobe Illustrator 25.4.4, SVG Export Plug-In . SVG Version: 6.00 Build 0)  -->
<svg version="1.1" id="Ebene_1" xmlns="http://www.w3.org/2000/svg" xmlns:xlink="http://www.w3.org/1999/xlink" x="0px" y="0px"
	 viewBox="0 0 58 58" style="enable-background:new 0 0 58 58;" xml:space="preserve">
<style type="text/css">
	.st0{fill:#FFFFFF;}
	.st1{fill:#6F7070;}
</style>
<g transform="translate(-443 -3618)">
	<circle class="st0" cx="472" cy="3647.1" r="28.7"/>
	<g transform="translate(-81.584 492)">
		<path class="st1" d="M533.2,3175.5c5.4,5.5,12.8,8.5,20.4,8.4c7.7,0.1,15.1-3,20.4-8.5c5.5-5.3,8.5-12.6,8.5-20.4
			c0.1-7.7-3-15.1-8.5-20.4c-5.3-5.5-12.6-8.5-20.4-8.5c-7.7-0.1-15.1,3-20.4,8.5c-5.5,5.3-8.5,12.6-8.5,20.4
			C524.7,3162.8,527.7,3170.2,533.2,3175.5z M539.8,3158.6l12.5-12.4c0.7-0.7,1.7-0.8,2.4-0.1c0.1,0,0.1,0.1,0.1,0.1l12.5,12.4
			c0.7,0.6,0.9,1.6,0.3,2.4c-0.1,0.1-0.2,0.2-0.3,0.3c-0.5,0.7-1.5,0.9-2.2,0.3c-0.1-0.1-0.3-0.2-0.5-0.5l-11.2-11l-11.2,11
			c-0.5,0.7-1.5,0.9-2.2,0.5c-0.2-0.1-0.3-0.2-0.5-0.5c-0.8-0.6-0.9-1.6-0.3-2.4C539.6,3158.8,539.7,3158.7,539.8,3158.6z"/>
	</g>
</g>
</svg>
