<svg xmlns="http://www.w3.org/2000/svg" width="58" height="58" viewBox="0 0 58 58">
  <g id="Gruppe_1357" data-name="Gruppe 1357" transform="translate(-787.001 -3617.5)">
    <g id="Gruppe_35" data-name="Gruppe 35" transform="translate(787.334 3617.5)">
      <g id="Ellipse_1" data-name="Ellipse 1" transform="translate(-0.333 0)" fill="#fff" stroke="#707070" stroke-width="2">
        <circle cx="29" cy="29" r="29" stroke="none"/>
        <circle cx="29" cy="29" r="28" fill="none"/>
      </g>
    </g>
    <path id="arrow_carrot_left" data-name="arrow carrot left" d="M.457,12.014l9.5,9.5a1.256,1.256,0,0,0,2.01,0,1.444,1.444,0,0,0,.457-1.051,1.169,1.169,0,0,0-.457-.959l-8.405-8.5,8.405-8.5A1.21,1.21,0,0,0,12.014.5,1.3,1.3,0,0,0,9.958.5L.457,10a1.334,1.334,0,0,0,0,2.01Zm28.778,18" transform="translate(826.34 3639.883) rotate(90)"/>
  </g>
</svg>
