<svg xmlns="http://www.w3.org/2000/svg" width="58" height="58" viewBox="0 0 58 58"><g transform="translate(-443 -3618)"><circle cx="29" cy="29" r="29" transform="translate(443 3618)" fill="#fff"/><g transform="translate(-81.584 492)"><path d="M8.458,49.542A28.226,28.226,0,0,0,29,58a27.925,27.925,0,0,0,20.481-8.519A27.925,27.925,0,0,0,58,29,27.925,27.925,0,0,0,49.481,8.519,27.925,27.925,0,0,0,29,0,27.925,27.925,0,0,0,8.519,8.519,27.925,27.925,0,0,0,0,29,28.226,28.226,0,0,0,8.458,49.542ZM15.1,32.5,27.671,19.938a1.764,1.764,0,0,1,2.658,0L42.9,32.5a1.722,1.722,0,0,1,0,2.719,1.6,1.6,0,0,1-2.658-.06L29,24.046,17.763,35.163a1.6,1.6,0,0,1-2.658.06A1.722,1.722,0,0,1,15.1,32.5ZM58,54.133" transform="translate(524.584 3126)" fill="#6f7070"/></g></g></svg>