<svg xmlns="http://www.w3.org/2000/svg" width="24.292" height="24.292" viewBox="0 0 24.292 24.292">
  <path id="search" d="M21.409,2.883A9.469,9.469,0,0,0,14.462,0,9.469,9.469,0,0,0,7.514,2.883,9.469,9.469,0,0,0,4.631,9.83a9.7,9.7,0,0,0,2.174,6.191L.331,22.5A.92.92,0,0,0,0,23.228a1.028,1.028,0,0,0,.307.756,1.028,1.028,0,0,0,.756.307.92.92,0,0,0,.733-.331l6.475-6.475a9.7,9.7,0,0,0,6.191,2.174,9.469,9.469,0,0,0,6.947-2.883A9.469,9.469,0,0,0,24.292,9.83,9.469,9.469,0,0,0,21.409,2.883ZM20.322,15.738a7.977,7.977,0,0,1-5.86,2.41,8.016,8.016,0,0,1-5.884-2.434A8.016,8.016,0,0,1,6.144,9.83,8.016,8.016,0,0,1,8.578,3.946a8.016,8.016,0,0,1,5.884-2.434,8.016,8.016,0,0,1,5.884,2.434A8.016,8.016,0,0,1,22.779,9.83,8.055,8.055,0,0,1,20.322,15.738Zm3.923,6.947"/>
</svg>
