<svg xmlns="http://www.w3.org/2000/svg" width="22.223" height="21.703" viewBox="0 0 22.223 21.703">
  <path id="user" d="M9.524,0A5.1,5.1,0,0,0,7.466.422,5.373,5.373,0,0,0,4.638,3.249a5.37,5.37,0,0,0-.4,2.059,5.37,5.37,0,0,0,.4,2.059A5.512,5.512,0,0,0,5.779,9.028a5.426,5.426,0,0,0,1.687,1.141,5.236,5.236,0,0,0,4.117,0A5.426,5.426,0,0,0,13.27,9.028,5.512,5.512,0,0,0,14.41,7.366a5.371,5.371,0,0,0,.4-2.059,5.371,5.371,0,0,0-.4-2.059A5.373,5.373,0,0,0,11.583.422,5.1,5.1,0,0,0,9.524,0Zm0,8.483a3.059,3.059,0,0,1-2.245-.93,3.059,3.059,0,0,1-.93-2.245,3.059,3.059,0,0,1,.93-2.245,3.059,3.059,0,0,1,2.245-.93,3.059,3.059,0,0,1,2.245.93,3.059,3.059,0,0,1,.93,2.245,3.059,3.059,0,0,1-.93,2.245A3.059,3.059,0,0,1,9.524,8.483Zm9.524,11.633V19.049a7.117,7.117,0,0,0-.6-2.877,7.357,7.357,0,0,0-1.575-2.344,7.625,7.625,0,0,0-2.369-1.6,7.265,7.265,0,0,0-2.877-.57H7.416a7.265,7.265,0,0,0-2.877.57,7.625,7.625,0,0,0-2.369,1.6A7.357,7.357,0,0,0,.6,16.171,7.117,7.117,0,0,0,0,19.049v1.067H2.108V19.049A5.1,5.1,0,0,1,2.53,16.99a5.512,5.512,0,0,1,1.141-1.662,5.426,5.426,0,0,1,1.687-1.141,5.1,5.1,0,0,1,2.059-.422h4.216a5.1,5.1,0,0,1,2.059.422,5.426,5.426,0,0,1,1.687,1.141,5.512,5.512,0,0,1,1.141,1.662,5.1,5.1,0,0,1,.422,2.059v1.067ZM22.223,21.7"/>
</svg>
