<svg xmlns="http://www.w3.org/2000/svg" width="21.54" height="24.617" viewBox="0 0 21.54 24.617">
  <path id="bag_alt" data-name="bag alt" d="M1.539,24.617H16.924a1.56,1.56,0,0,0,1.539-1.539V6.154a1.56,1.56,0,0,0-1.539-1.539H13.847a4.625,4.625,0,0,0-1.394-3.269A4.4,4.4,0,0,0,9.232,0,4.4,4.4,0,0,0,6.01,1.346,4.625,4.625,0,0,0,4.616,4.616H1.539a1.479,1.479,0,0,0-1.082.457A1.479,1.479,0,0,0,0,6.154V23.079a1.479,1.479,0,0,0,.457,1.082A1.479,1.479,0,0,0,1.539,24.617ZM16.924,6.154V23.079H1.539V6.154Zm-9.857-3.7a2.957,2.957,0,0,1,2.164-.914,2.917,2.917,0,0,1,2.14.889,3.148,3.148,0,0,1,.938,2.188H6.154A3.108,3.108,0,0,1,7.068,2.452ZM6.924,9.232h4.616a.769.769,0,1,0,0-1.539H6.924a.769.769,0,1,0,0,1.539ZM21.54,23.079"/>
</svg>
