<svg xmlns="http://www.w3.org/2000/svg" width="23.94" height="20.527" viewBox="0 0 23.94 20.527">
  <path id="heart_alt" data-name="heart alt" d="M23.94,6.92a6.972,6.972,0,0,0-2.034-4.839,6.349,6.349,0,0,0-9.936.678,6.349,6.349,0,0,0-9.936-.678A6.972,6.972,0,0,0,0,6.92v.14a.639.639,0,0,0,.023.14.639.639,0,0,1,.023.14,10.492,10.492,0,0,0,.748,3.671A11.9,11.9,0,0,0,2.5,14.027a17.15,17.15,0,0,0,2.361,2.408,23.439,23.439,0,0,0,2.455,1.847,20.388,20.388,0,0,0,2.291,1.262q1.192.561,1.613.725t.655.257q.234-.094.655-.234a17.8,17.8,0,0,0,1.637-.725,24.151,24.151,0,0,0,2.338-1.286,25.3,25.3,0,0,0,2.5-1.824,15.115,15.115,0,0,0,2.385-2.408,12.911,12.911,0,0,0,1.73-3.039,10.176,10.176,0,0,0,.772-3.671.64.64,0,0,1,.023-.14.639.639,0,0,0,.023-.14V6.92ZM22.4,7.294a8.869,8.869,0,0,1-1.005,3.881,12.175,12.175,0,0,1-2.174,3.086,18.477,18.477,0,0,1-2.829,2.291A21.1,21.1,0,0,1,13.77,18.1q-1.005.468-1.894.842-.888-.374-1.87-.842a21.18,21.18,0,0,1-2.572-1.543,18.023,18.023,0,0,1-2.782-2.291,12.084,12.084,0,0,1-2.127-3.086,9.147,9.147,0,0,1-.982-3.928A.415.415,0,0,0,1.5,7.06V6.967a5.563,5.563,0,0,1,1.59-3.858A4.883,4.883,0,0,1,6.733,1.5a4.817,4.817,0,0,1,4.021,2.151,1.52,1.52,0,0,0,2.431,0A4.817,4.817,0,0,1,17.207,1.5a4.883,4.883,0,0,1,3.647,1.613,5.563,5.563,0,0,1,1.59,3.858V7.06A.52.52,0,0,0,22.4,7.294ZM23.94,19.031"/>
</svg>
