<svg xmlns="http://www.w3.org/2000/svg" width="17.5" height="20" viewBox="0 0 17.5 20">
  <path id="bag_alt" data-name="bag alt" d="M1.25,20h12.5A1.267,1.267,0,0,0,15,18.75V5a1.267,1.267,0,0,0-1.25-1.25h-2.5a3.757,3.757,0,0,0-1.133-2.656A3.571,3.571,0,0,0,7.5,0,3.571,3.571,0,0,0,4.883,1.094,3.757,3.757,0,0,0,3.75,3.75H1.25a1.2,1.2,0,0,0-.879.371A1.2,1.2,0,0,0,0,5V18.75a1.2,1.2,0,0,0,.371.879A1.2,1.2,0,0,0,1.25,20ZM13.75,5V18.75H1.25V5ZM5.742,1.992A2.4,2.4,0,0,1,7.5,1.25a2.37,2.37,0,0,1,1.738.723A2.558,2.558,0,0,1,10,3.75H5A2.525,2.525,0,0,1,5.742,1.992ZM5.625,7.5h3.75a.625.625,0,1,0,0-1.25H5.625a.625.625,0,1,0,0,1.25ZM17.5,18.75"/>
</svg>
