<svg xmlns="http://www.w3.org/2000/svg" width="58" height="58" viewBox="0 0 58 58">
  <g id="Gruppe_36" data-name="Gruppe 36" transform="translate(0.333)">
    <g id="Gruppe_35" data-name="Gruppe 35" transform="translate(0 0)">
      <path id="instagram" d="M19.786,0H7.427a7.332,7.332,0,0,0-2.9.58,7.548,7.548,0,0,0-2.35,1.6A7.457,7.457,0,0,0,.58,4.555,7.124,7.124,0,0,0,0,7.427V19.815a7.38,7.38,0,0,0,2.176,5.236,7.674,7.674,0,0,0,2.35,1.581,7.031,7.031,0,0,0,2.9.609H19.786a7.031,7.031,0,0,0,2.9-.609,7.674,7.674,0,0,0,2.35-1.581,7.38,7.38,0,0,0,2.176-5.236V7.427a7.124,7.124,0,0,0-.58-2.872,7.457,7.457,0,0,0-1.6-2.379,7.548,7.548,0,0,0-2.35-1.6A7.332,7.332,0,0,0,19.786,0Zm4.961,19.815a4.953,4.953,0,0,1-4.961,4.932H7.427A4.782,4.782,0,0,1,3.916,23.3a4.748,4.748,0,0,1-1.451-3.481V7.427a4.8,4.8,0,0,1,1.451-3.5,4.758,4.758,0,0,1,3.51-1.465H19.786A4.758,4.758,0,0,1,23.3,3.931a4.8,4.8,0,0,1,1.451,3.5ZM14.593,7.427a4.995,4.995,0,0,0-1.857,0,5.658,5.658,0,0,0-2.292.841A6.36,6.36,0,0,0,8.7,9.893,6.461,6.461,0,0,0,7.688,12.04a6.083,6.083,0,0,0,.667,4.714,6.282,6.282,0,0,0,1.654,1.813,8.964,8.964,0,0,0,1.77.9,5.49,5.49,0,0,0,1.944.348q.2,0,.45-.015a.832.832,0,0,0,.421-.131,6.017,6.017,0,0,0,2.277-.812A6.282,6.282,0,0,0,18.683,17.2a5.907,5.907,0,0,0,1.03-2.19,6.035,6.035,0,0,0,.073-2.393,5.822,5.822,0,0,0-1.7-3.467A5.993,5.993,0,0,0,14.593,7.427Zm2.118,8.3a5.1,5.1,0,0,1-1.1.972,3.154,3.154,0,0,1-1.393.508,3.849,3.849,0,0,1-2.742-.711A3.358,3.358,0,0,1,10.009,14.1a3.42,3.42,0,0,1,.682-2.742,3.532,3.532,0,0,1,2.422-1.465H14.1A3.714,3.714,0,0,1,17.2,13a3.262,3.262,0,0,1,.015,1.465A3.971,3.971,0,0,1,16.71,15.724Zm2.843-9.777a1.043,1.043,0,0,0-.29.377,1.25,1.25,0,0,0-.087.493,1.169,1.169,0,0,0,.087.464,1.325,1.325,0,0,0,.29.406,1.106,1.106,0,0,0,.421.261,1.363,1.363,0,0,0,.45.087,1.169,1.169,0,0,0,.464-.087,1.6,1.6,0,0,0,.406-.261,1.4,1.4,0,0,0,.261-.45,1.3,1.3,0,0,0,.087-.421,1.25,1.25,0,0,0-.087-.493,1.213,1.213,0,0,0-2-.377ZM28.46,25.994" transform="translate(14.264 15.089)"/>
      <g id="Ellipse_1" data-name="Ellipse 1" transform="translate(-0.333 0)" fill="none" stroke="#707070" stroke-width="2">
        <circle cx="29" cy="29" r="29" stroke="none"/>
        <circle cx="29" cy="29" r="28" fill="none"/>
      </g>
    </g>
  </g>
</svg>
